<svg width="134" height="166" viewBox="0 0 134 166" fill="none" xmlns="http://www.w3.org/2000/svg">
<path d="M66.6786 165.19C66.3686 165.19 66.0686 165.12 65.7886 164.98C62.3286 163.25 59.5086 161.87 57.1586 160.72L53.5186 158.95C48.2986 156.41 45.6786 155.14 41.7686 152.9C41.3986 152.7 40.9986 152.47 40.5686 152.22C38.6786 151.12 36.8186 149.98 35.0386 148.82C30.2786 145.72 26.1586 142.55 22.4386 139.12C8.11856 125.98 0.848564 109.85 0.198564 89.82C-0.131436 79.87 0.0185862 69.68 0.158586 59.83C0.288586 50.81 0.428564 41.47 0.198564 32.39C0.198564 32.32 0.198564 32.24 0.198564 32.17C0.888564 23.99 7.28861 21.89 12.9286 20.04C14.1986 19.62 15.4986 19.2 16.7086 18.71C31.8486 12.64 65.6486 0.24 65.9886 0.12C66.4286 -0.04 66.9186 -0.04 67.3586 0.12C67.5686 0.2 88.5186 7.82002 105.339 14.14C109.279 15.63 114.319 17.54 118.289 19.09C120.349 19.9 122.109 20.6 123.489 21.18C126.259 22.33 128.339 23.26 129.929 24.87C131.639 26.58 132.559 28.83 132.889 32.14C132.889 32.23 132.899 32.32 132.889 32.41C132.709 37.57 132.669 43.18 132.749 50.07C132.769 52.39 132.809 54.7 132.859 57.01L132.949 61.68C133.149 72.14 133.359 82.96 132.889 93.45C131.809 117.9 117.609 138.01 90.6986 153.22C87.3486 155.11 85.9886 155.78 82.3786 157.57C79.5586 158.96 75.3086 161.06 67.5786 164.99C67.2986 165.13 66.9786 165.21 66.6686 165.21L66.6786 165.19ZM4.18855 32.39C4.41855 41.52 4.27858 50.85 4.14858 59.88C4.00858 69.68 3.85861 79.82 4.17861 89.68C4.78861 108.58 11.6486 123.79 25.1286 136.17C28.6786 139.45 32.6286 142.49 37.2086 145.47C38.9286 146.59 40.7286 147.7 42.5586 148.77C42.9586 149 43.3386 149.22 43.6986 149.42C47.5286 151.6 50.0986 152.86 55.2386 155.36L58.8886 157.14C61.0386 158.19 63.5786 159.44 66.6486 160.97C73.8286 157.32 77.8786 155.32 80.5886 153.98C84.2286 152.18 85.4586 151.57 88.7086 149.74C114.699 135.04 127.839 116.57 128.879 93.27C129.349 82.9 129.139 72.15 128.939 61.75L128.849 57.08C128.799 54.76 128.759 52.43 128.739 50.1C128.659 43.22 128.699 37.59 128.879 32.4C128.569 29.5 127.749 28.35 127.069 27.67C125.999 26.58 124.339 25.85 121.939 24.85C120.579 24.28 118.839 23.59 116.819 22.79C112.859 21.25 107.839 19.34 103.909 17.86C88.8286 12.19 70.4186 5.48002 66.6586 4.11002C61.7686 5.91002 32.0686 16.84 18.1786 22.41C16.8586 22.94 15.4786 23.39 14.1586 23.83C8.29859 25.75 4.66861 27.2 4.17861 32.39H4.18855Z" fill="#2C3820"/>
<path d="M99.4886 31.35V109.13C99.4886 109.13 99.4886 109.2 99.4786 109.23C99.4786 109.29 99.4786 109.34 99.4586 109.4C99.4586 109.45 99.4386 109.5 99.4186 109.55C99.4086 109.6 99.3885 109.65 99.3785 109.69C99.3585 109.74 99.3286 109.79 99.3086 109.85C99.2886 109.89 99.2686 109.93 99.2486 109.96C99.2086 110.02 99.1685 110.07 99.1285 110.13C99.1085 110.15 99.0885 110.18 99.0685 110.2C99.0085 110.26 98.9485 110.32 98.8785 110.37C98.8685 110.37 98.8586 110.39 98.8386 110.4C98.5786 110.59 98.2686 110.7 97.9186 110.7H18.8086V118.54H105.779C105.779 118.54 105.839 118.54 105.879 118.54C105.919 118.54 105.949 118.54 105.989 118.53C106.129 118.51 106.259 118.48 106.379 118.43C106.399 118.43 106.409 118.41 106.419 118.41C106.489 118.38 106.559 118.34 106.619 118.3C106.649 118.28 106.669 118.27 106.689 118.25C106.739 118.21 106.789 118.17 106.839 118.13C106.859 118.11 106.879 118.09 106.899 118.07C106.959 118.01 107.009 117.95 107.049 117.88C107.049 117.88 107.059 117.86 107.069 117.86C107.119 117.79 107.159 117.71 107.199 117.62C107.209 117.59 107.219 117.57 107.229 117.54C107.249 117.48 107.269 117.42 107.289 117.35C107.289 117.32 107.299 117.29 107.309 117.26C107.329 117.17 107.339 117.07 107.339 116.98V31.35H99.4686H99.4886Z" fill="#2C3820"/>
<path d="M86.7386 31.35V98.85H18.8086V107.57H96.3486V31.35H86.7386Z" fill="#2C3820"/>
<path d="M46.3786 70.3C51.5686 68.52 55.0586 65.03 56.8386 59.84C57.0786 59.13 58.0686 59.13 58.3186 59.84C60.0986 65.03 63.5886 68.52 68.7786 70.3C69.4886 70.54 69.4886 71.53 68.7786 71.78C63.5886 73.56 60.0986 77.05 58.3186 82.24C58.0786 82.95 57.0886 82.95 56.8386 82.24C55.0586 77.05 51.5686 73.56 46.3786 71.78C45.6686 71.54 45.6686 70.55 46.3786 70.3Z" fill="#2C3820"/>
</svg>
